<svg width="325" height="104" viewBox="0 0 325 104" fill="none" xmlns="http://www.w3.org/2000/svg">
<path d="M25.3133 50.6592C17.6226 50.6592 11.7557 48.7695 7.71264 44.9901C3.66955 41.2107 1.648 35.8711 1.648 28.9715C1.648 21.8522 3.6256 16.4028 7.5808 12.6234C11.536 8.8 17.4249 6.88832 25.2474 6.88832C27.8842 6.88832 30.2353 7.08608 32.3008 7.4816C34.3663 7.87712 36.3439 8.42645 38.2336 9.1296V19.9405C34.4542 18.2705 30.4111 17.4355 26.1043 17.4355C22.1052 17.4355 19.1388 18.3584 17.2051 20.2042C15.2715 22.006 14.3046 24.9284 14.3046 28.9715C14.3046 32.9267 15.3154 35.7833 17.337 37.5411C19.4025 39.255 22.3689 40.112 26.2362 40.112C28.3456 40.112 30.3891 39.9142 32.3667 39.5187C34.3883 39.1232 36.3878 38.5079 38.3654 37.673V48.5498C36.4757 49.209 34.4762 49.7143 32.3667 50.0659C30.3012 50.4614 27.9501 50.6592 25.3133 50.6592ZM51.3905 50.6592C49.4129 50.6592 47.5671 50.3076 45.8532 49.6045C44.1832 48.9013 42.8428 47.8027 41.8321 46.3085C40.8213 44.8143 40.3159 42.9246 40.3159 40.6394C40.3159 37.3434 41.4146 34.7945 43.6119 32.9926C45.8092 31.1469 49.1272 30.224 53.5658 30.224H61.674V29.6307C61.674 28.4002 61.1686 27.4993 60.1578 26.928C59.1471 26.3567 57.3672 26.071 54.8183 26.071C51.2147 26.071 47.655 26.6204 44.1393 27.719V20.2701C45.7214 19.6548 47.699 19.1494 50.0721 18.7539C52.4452 18.3145 54.8623 18.0947 57.3233 18.0947C62.2892 18.0947 66.2225 19.1055 69.123 21.127C72.0234 23.1486 73.4737 26.3567 73.4737 30.7514V50H62.6628L62.0695 47.495C60.9708 48.4619 59.5426 49.2309 57.7847 49.8022C56.0708 50.3735 53.9394 50.6592 51.3905 50.6592ZM55.6094 43.408C57.0156 43.408 58.2022 43.1663 59.169 42.6829C60.1798 42.1995 61.0148 41.6062 61.674 40.903V37.0138H55.6753C52.9506 37.0138 51.5882 38.0905 51.5882 40.2438C51.5882 42.3533 52.9286 43.408 55.6094 43.408ZM91.109 50.6592C86.9341 50.6592 83.9017 49.6045 82.012 47.495C80.1223 45.3856 79.1775 42.5291 79.1775 38.9254V27.9168H75.0904V18.7539H79.1775V12.3597L91.5704 9.39328V18.7539H98.7557L98.2943 27.9168H91.5704V38.0026C91.5704 39.321 91.9 40.2658 92.5592 40.8371C93.2184 41.3645 94.2292 41.6282 95.5915 41.6282C96.866 41.6282 98.1624 41.4084 99.4808 40.969V49.209C97.1517 50.1758 94.361 50.6592 91.109 50.6592ZM111.152 50.6592C109.174 50.6592 107.329 50.3076 105.615 49.6045C103.945 48.9013 102.604 47.8027 101.594 46.3085C100.583 44.8143 100.077 42.9246 100.077 40.6394C100.077 37.3434 101.176 34.7945 103.373 32.9926C105.571 31.1469 108.889 30.224 113.327 30.224H121.435V29.6307C121.435 28.4002 120.93 27.4993 119.919 26.928C118.909 26.3567 117.129 26.071 114.58 26.071C110.976 26.071 107.416 26.6204 103.901 27.719V20.2701C105.483 19.6548 107.46 19.1494 109.834 18.7539C112.207 18.3145 114.624 18.0947 117.085 18.0947C122.051 18.0947 125.984 19.1055 128.884 21.127C131.785 23.1486 133.235 26.3567 133.235 30.7514V50H122.424L121.831 47.495C120.732 48.4619 119.304 49.2309 117.546 49.8022C115.832 50.3735 113.701 50.6592 111.152 50.6592ZM115.371 43.408C116.777 43.408 117.964 43.1663 118.93 42.6829C119.941 42.1995 120.776 41.6062 121.435 40.903V37.0138H115.437C112.712 37.0138 111.35 38.0905 111.35 40.2438C111.35 42.3533 112.69 43.408 115.371 43.408ZM148.102 50.6592C144.278 50.6592 141.554 49.8462 139.928 48.2202C138.302 46.5941 137.489 44.0452 137.489 40.5734V5.56992H149.882V39.1891C149.882 40.1559 150.079 40.8151 150.475 41.1667C150.87 41.4743 151.486 41.6282 152.321 41.6282C152.892 41.6282 153.441 41.5842 153.969 41.4963C154.54 41.4084 155.067 41.2766 155.551 41.1008V49.3408C154.408 49.7803 153.288 50.1099 152.189 50.3296C151.134 50.5493 149.772 50.6592 148.102 50.6592ZM174.107 50.6592C167.867 50.6592 163.253 49.2749 160.264 46.5062C157.32 43.7376 155.848 39.6945 155.848 34.377C155.848 29.1034 157.342 25.0822 160.33 22.3136C163.319 19.501 167.911 18.0947 174.107 18.0947C180.348 18.0947 184.962 19.501 187.951 22.3136C190.983 25.0822 192.499 29.1034 192.499 34.377C192.499 39.6945 191.005 43.7376 188.017 46.5062C185.028 49.2749 180.392 50.6592 174.107 50.6592ZM174.107 41.6282C176.129 41.6282 177.579 41.0569 178.458 39.9142C179.381 38.7716 179.842 36.9259 179.842 34.377C179.842 31.872 179.381 30.0482 178.458 28.9056C177.579 27.719 176.129 27.1258 174.107 27.1258C172.13 27.1258 170.702 27.719 169.823 28.9056C168.944 30.0482 168.504 31.872 168.504 34.377C168.504 36.9259 168.944 38.7716 169.823 39.9142C170.702 41.0569 172.13 41.6282 174.107 41.6282ZM209.481 61.6019C207.943 61.6019 206.273 61.536 204.471 61.4042C202.669 61.3163 200.955 61.1405 199.329 60.8768C197.747 60.6131 196.429 60.3055 195.374 59.9539V52.0435C196.561 52.439 197.923 52.7686 199.461 53.0323C201.043 53.296 202.647 53.4938 204.273 53.6256C205.899 53.7574 207.393 53.8234 208.756 53.8234C211.085 53.8234 212.909 53.6915 214.227 53.4278C215.589 53.2081 216.271 52.7906 216.271 52.1754C216.271 51.648 216.051 51.2964 215.611 51.1206C215.172 50.9888 214.337 50.9229 213.106 50.9229H204.866C201.658 50.9229 199.175 50.4175 197.418 49.4067C195.704 48.352 194.847 46.7919 194.847 44.7264C194.847 41.8259 196.451 39.8044 199.659 38.6618C197.857 37.7389 196.539 36.5743 195.704 35.168C194.869 33.7617 194.451 31.9819 194.451 29.8285C194.451 25.7854 195.813 22.819 198.538 20.9293C201.307 19.0396 205.284 18.0947 210.47 18.0947C211.568 18.0947 212.799 18.1826 214.161 18.3584C215.524 18.4902 216.512 18.6221 217.128 18.7539H229.389L229.125 26.2688H224.972C225.763 27.2796 226.159 28.5101 226.159 29.9603C226.159 33.1684 225.214 35.7173 223.324 37.607C221.478 39.4528 218.556 40.3757 214.557 40.3757C213.985 40.3757 213.37 40.3537 212.711 40.3098C212.052 40.2219 211.437 40.1559 210.865 40.112C209.898 40.1999 209.063 40.3757 208.36 40.6394C207.657 40.903 207.306 41.3425 207.306 41.9578C207.306 42.3972 207.503 42.7049 207.899 42.8806C208.294 43.0125 208.844 43.0784 209.547 43.0784H216.732C219.94 43.0784 222.467 43.8255 224.313 45.3197C226.159 46.8139 227.082 49.0112 227.082 51.9117C227.082 54.9879 225.653 57.3611 222.797 59.031C219.94 60.745 215.502 61.6019 209.481 61.6019ZM210.536 33.5859C212.469 33.5859 213.81 33.2563 214.557 32.5971C215.304 31.9379 215.677 30.8393 215.677 29.3011C215.677 27.763 215.304 26.6423 214.557 25.9392C213.81 25.2361 212.469 24.8845 210.536 24.8845C208.734 24.8845 207.415 25.2361 206.58 25.9392C205.789 26.5984 205.394 27.719 205.394 29.3011C205.394 30.7953 205.767 31.894 206.514 32.5971C207.306 33.2563 208.646 33.5859 210.536 33.5859ZM248.225 50.6592C241.984 50.6592 237.37 49.2749 234.381 46.5062C231.437 43.7376 229.965 39.6945 229.965 34.377C229.965 29.1034 231.459 25.0822 234.447 22.3136C237.436 19.501 242.028 18.0947 248.225 18.0947C254.465 18.0947 259.079 19.501 262.068 22.3136C265.1 25.0822 266.616 29.1034 266.616 34.377C266.616 39.6945 265.122 43.7376 262.134 46.5062C259.145 49.2749 254.509 50.6592 248.225 50.6592ZM248.225 41.6282C250.246 41.6282 251.696 41.0569 252.575 39.9142C253.498 38.7716 253.96 36.9259 253.96 34.377C253.96 31.872 253.498 30.0482 252.575 28.9056C251.696 27.719 250.246 27.1258 248.225 27.1258C246.247 27.1258 244.819 27.719 243.94 28.9056C243.061 30.0482 242.621 31.872 242.621 34.377C242.621 36.9259 243.061 38.7716 243.94 39.9142C244.819 41.0569 246.247 41.6282 248.225 41.6282Z" fill="#565656"/>
<path d="M46.8252 98.7259C39.2664 98.7259 33.5094 96.8801 29.5542 93.1886C25.599 89.4531 23.6214 84.1356 23.6214 77.2359C23.6214 70.1166 25.6649 64.6232 29.7519 60.7559C33.839 56.8886 39.8157 54.955 47.6822 54.955C50.319 54.955 52.6921 55.1088 54.8015 55.4164C56.9549 55.724 58.9765 56.1855 60.8662 56.8007V67.4138C58.9325 66.6668 56.933 66.1614 54.8675 65.8977C52.802 65.634 50.6925 65.5022 48.5391 65.5022C44.4521 65.5022 41.3758 66.4251 39.3103 68.2708C37.2888 70.1166 36.278 73.1049 36.278 77.2359C36.278 81.1032 37.157 83.8938 38.9148 85.6078C40.7166 87.3217 43.3534 88.1787 46.8252 88.1787C47.9678 88.1787 49.0445 88.1127 50.0553 87.9809C51.0661 87.8051 52.0109 87.5854 52.8899 87.3217V81.1252H44.4521V73.4785H63.2393V94.8366C61.6133 95.8473 59.4379 96.7483 56.7132 97.5393C54.0325 98.3303 50.7365 98.7259 46.8252 98.7259ZM83.7097 98.7259C80.0621 98.7259 76.832 98.1326 74.0195 96.946C71.2508 95.7155 69.0755 93.8917 67.4934 91.4747C65.9552 89.0576 65.1862 86.0692 65.1862 82.5095C65.1862 77.5436 66.5925 73.5884 69.4051 70.6439C72.2176 67.6556 76.4146 66.1614 81.9958 66.1614C87.0936 66.1614 91.0708 67.4578 93.9273 70.0507C96.8278 72.6435 98.278 76.1812 98.278 80.6638V86.1351H76.5903C77.1616 87.8051 78.2823 88.9917 79.9523 89.6948C81.6222 90.398 83.8855 90.7495 86.742 90.7495C88.5438 90.7495 90.3456 90.5957 92.1475 90.2881C93.9932 89.9365 95.4654 89.541 96.5641 89.1015V96.5505C93.4878 98.0007 89.203 98.7259 83.7097 98.7259ZM76.5903 79.4113H87.599V78.2907C87.599 77.0601 87.2035 76.0494 86.4124 75.2583C85.6653 74.4673 84.325 74.0718 82.3913 74.0718C80.2379 74.0718 78.7218 74.5332 77.8428 75.4561C77.0078 76.335 76.5903 77.6534 76.5903 79.4113ZM101.503 98.0667V66.8206H113.105L113.435 69.1937C114.621 68.4026 116.181 67.6995 118.115 67.0842C120.093 66.469 122.202 66.1614 124.443 66.1614C128.355 66.1614 131.211 67.1282 133.013 69.0618C134.815 70.9955 135.716 73.9839 135.716 78.027V98.0667H123.323V79.2794C123.323 77.8732 123.015 76.8624 122.4 76.2471C121.785 75.6319 120.708 75.3242 119.17 75.3242C118.247 75.3242 117.28 75.544 116.269 75.9835C115.302 76.4229 114.511 76.9503 113.896 77.5655V98.0667H101.503ZM156.732 98.7259C153.085 98.7259 149.855 98.1326 147.042 96.946C144.274 95.7155 142.098 93.8917 140.516 91.4747C138.978 89.0576 138.209 86.0692 138.209 82.5095C138.209 77.5436 139.615 73.5884 142.428 70.6439C145.24 67.6556 149.437 66.1614 155.018 66.1614C160.116 66.1614 164.093 67.4578 166.95 70.0507C169.85 72.6435 171.301 76.1812 171.301 80.6638V86.1351H149.613C150.184 87.8051 151.305 88.9917 152.975 89.6948C154.645 90.398 156.908 90.7495 159.765 90.7495C161.567 90.7495 163.368 90.5957 165.17 90.2881C167.016 89.9365 168.488 89.541 169.587 89.1015V96.5505C166.511 98.0007 162.226 98.7259 156.732 98.7259ZM149.613 79.4113H160.622V78.2907C160.622 77.0601 160.226 76.0494 159.435 75.2583C158.688 74.4673 157.348 74.0718 155.414 74.0718C153.261 74.0718 151.744 74.5332 150.866 75.4561C150.031 76.335 149.613 77.6534 149.613 79.4113ZM174.526 98.0667V66.8206H186.457L186.787 69.3255C188.061 68.5784 189.687 67.8973 191.665 67.282C193.643 66.6668 195.642 66.2932 197.664 66.1614V75.3902C196.521 75.4781 195.269 75.6319 193.906 75.8516C192.588 76.0713 191.291 76.357 190.017 76.7086C188.787 77.0162 187.754 77.3678 186.919 77.7633V98.0667H174.526ZM207.564 98.7259C205.587 98.7259 203.741 98.3743 202.027 97.6711C200.357 96.968 199.017 95.8693 198.006 94.3751C196.995 92.8809 196.49 90.9912 196.49 88.706C196.49 85.41 197.588 82.8611 199.786 81.0593C201.983 79.2135 205.301 78.2907 209.74 78.2907H217.848V77.6974C217.848 76.4669 217.342 75.566 216.332 74.9946C215.321 74.4233 213.541 74.1377 210.992 74.1377C207.388 74.1377 203.829 74.687 200.313 75.7857V68.3367C201.895 67.7215 203.873 67.2161 206.246 66.8206C208.619 66.3811 211.036 66.1614 213.497 66.1614C218.463 66.1614 222.396 67.1721 225.297 69.1937C228.197 71.2152 229.647 74.4233 229.647 78.818V98.0667H218.837L218.243 95.5617C217.145 96.5285 215.716 97.2976 213.959 97.8689C212.245 98.4402 210.113 98.7259 207.564 98.7259ZM211.783 91.4747C213.189 91.4747 214.376 91.2329 215.343 90.7495C216.354 90.2661 217.189 89.6728 217.848 88.9697V85.0804H211.849C209.124 85.0804 207.762 86.1571 207.762 88.3105C207.762 90.4199 209.102 91.4747 211.783 91.4747ZM247.283 98.7259C243.108 98.7259 240.076 97.6711 238.186 95.5617C236.296 93.4523 235.351 90.5957 235.351 86.9921V75.9835H231.264V66.8206H235.351V60.4263L247.744 57.4599V66.8206H254.93L254.468 75.9835H247.744V86.0692C247.744 87.3876 248.074 88.3325 248.733 88.9038C249.392 89.4311 250.403 89.6948 251.765 89.6948C253.04 89.6948 254.336 89.4751 255.655 89.0356V97.2756C253.325 98.2424 250.535 98.7259 247.283 98.7259ZM274.511 98.7259C268.271 98.7259 263.656 97.3415 260.668 94.5729C257.723 91.8043 256.251 87.7612 256.251 82.4436C256.251 77.17 257.745 73.1489 260.734 70.3803C263.722 67.5677 268.315 66.1614 274.511 66.1614C280.751 66.1614 285.366 67.5677 288.354 70.3803C291.387 73.1489 292.903 77.17 292.903 82.4436C292.903 87.7612 291.409 91.8043 288.42 94.5729C285.432 97.3415 280.795 98.7259 274.511 98.7259ZM274.511 89.6948C276.533 89.6948 277.983 89.1235 278.862 87.9809C279.785 86.8383 280.246 84.9925 280.246 82.4436C280.246 79.9387 279.785 78.1149 278.862 76.9722C277.983 75.7857 276.533 75.1924 274.511 75.1924C272.533 75.1924 271.105 75.7857 270.226 76.9722C269.347 78.1149 268.908 79.9387 268.908 82.4436C268.908 84.9925 269.347 86.8383 270.226 87.9809C271.105 89.1235 272.533 89.6948 274.511 89.6948ZM296.173 98.0667V66.8206H308.105L308.434 69.3255C309.709 68.5784 311.335 67.8973 313.312 67.282C315.29 66.6668 317.29 66.2932 319.311 66.1614V75.3902C318.168 75.4781 316.916 75.6319 315.554 75.8516C314.235 76.0713 312.939 76.357 311.664 76.7086C310.434 77.0162 309.401 77.3678 308.566 77.7633V98.0667H296.173Z" fill="#1075EB"/>
<path d="M275.124 53.3025V24.9775C275.124 23.7254 275.697 22.5247 276.717 21.6394C277.736 20.754 279.119 20.2567 280.56 20.2567H309.915V58.0233H280.56C279.119 58.0233 277.736 57.526 276.717 56.6406C275.697 55.7553 275.124 54.5545 275.124 53.3025ZM275.124 53.3025C275.124 52.0504 275.697 50.8497 276.717 49.9644C277.736 49.079 279.119 48.5817 280.56 48.5817H309.915" stroke="#565656" stroke-width="5.49333" stroke-linecap="round" stroke-linejoin="round"/>
<path d="M283.822 29.6984H296.869" stroke="#565656" stroke-width="3.45189" stroke-linecap="round" stroke-linejoin="round"/>
<path d="M283.822 37.2516H301.218" stroke="#565656" stroke-width="4.12" stroke-linecap="round" stroke-linejoin="round"/>
</svg>
